# xmcd
#
# Track frame offsets:
#	150
#	22611
#	46036
#	65783
#	88052
#	110585
#	132081
#	154791
#	176347
#	199110
#	217622
#	241041
#	266798
#
# Disc length: 3882 seconds
#
# Revision: 1
# Processed by: cddbd v1.4PL0 Copyright (c) Steve Scherf et al.
# Submitted via: EasyCDDAExtractor 5.0.7
#
DISCID=a20f280d
DTITLE=José Alfonso "chiche" maestre - Mis canciones... Mi historia
DYEAR=2002
DGENRE=vocal
TTITLE0=Los adioses de mi vida
TTITLE1=a una sirena
TTITLE2=Uno de los dos
TTITLE3=Sólo quise ser feliz
TTITLE4=En el aire (inédita)
TTITLE5=Directo al corazón
TTITLE6=Donde estarán losamigos (inédita)
TTITLE7=El mártir
TTITLE8=Gracias a ti
TTITLE9=Un día hice canciones
TTITLE10=el forastro
TTITLE11=El verdadero culpable
TTITLE12=Que canten las naciones
EXTD=
EXTT0=
EXTT1=
EXTT2=
EXTT3=
EXTT4=
EXTT5=
EXTT6=
EXTT7=
EXTT8=
EXTT9=
EXTT10=
EXTT11=
EXTT12=
PLAYORDER=
